<svg xmlns="http://www.w3.org/2000/svg" width="48" height="48" viewBox="0 0 48 48"><g fill="none"><path fill="#deeeff" d="M23.997 47.997c13.255 0 24-10.745 24-24c0-13.254-10.745-24-24-24s-24 10.746-24 24s10.745 24 24 24"/><path fill="#6bafff" d="M36.238 20.393L22.434 34.184l-9.057 2.886a3.36 3.36 0 0 0-2.456-2.456l2.88-9.063l13.797-13.797z"/><path fill="#2e3ecd" d="m36.836 19.794l-.617.617l-8.64-8.64l.617-.616a3.49 3.49 0 0 1 4.937 0l3.703 3.702a3.49 3.49 0 0 1 0 4.937M13.377 37.07l-3.065.88a.217.217 0 0 1-.27-.27l.88-3.065a3.44 3.44 0 0 1 1.557.898c.432.43.742.968.898 1.558"/><path fill="#6bafff" d="m27.58 11.772l-1.833 1.832l8.64 8.64l1.832-1.833z"/><path fill="#2e3ecd" d="M34.368 22.263L22.516 34.115a.255.255 0 0 1-.364 0a.34.34 0 0 1-.07-.367a1.737 1.737 0 0 0-2.26-2.296a.38.38 0 0 1-.416-.083l-.007-.007a.38.38 0 0 1-.083-.416a1.74 1.74 0 0 0-2.271-2.271a.38.38 0 0 1-.417-.084a.38.38 0 0 1-.09-.422a1.74 1.74 0 0 0-1.28-2.372a1.74 1.74 0 0 0-1.015.113a.34.34 0 0 1-.367-.071a.255.255 0 0 1 0-.364l11.852-11.852z"/><path fill="#2e3ecd" d="M31.59 19.485L19.604 31.473a.37.37 0 0 1-.198-.105a.38.38 0 0 1-.09-.422a1.74 1.74 0 0 0-2.27-2.272a.38.38 0 0 1-.423-.09a.4.4 0 0 1-.105-.197L28.504 16.4z"/></g></svg>